<svg width="28" height="28" viewBox="0 0 28 28" fill="none" xmlns="http://www.w3.org/2000/svg">
<path d="M24.9375 14C24.9375 14.3481 24.7992 14.6819 24.5531 14.928C24.3069 15.1742 23.9731 15.3125 23.625 15.3125H7.54687L13.1819 20.9464C13.4284 21.1929 13.567 21.5274 13.567 21.8761C13.567 22.2248 13.4284 22.5592 13.1819 22.8057C12.9353 23.0523 12.6009 23.1908 12.2522 23.1908C11.9035 23.1908 11.5691 23.0523 11.3225 22.8057L3.4475 14.9307C3.32514 14.8088 3.22805 14.6639 3.16181 14.5044C3.09556 14.3448 3.06146 14.1738 3.06146 14.0011C3.06146 13.8283 3.09556 13.6573 3.16181 13.4977C3.22805 13.3382 3.32514 13.1933 3.4475 13.0714L11.3225 5.19637C11.4446 5.07428 11.5895 4.97743 11.749 4.91136C11.9086 4.84529 12.0795 4.81128 12.2522 4.81128C12.4248 4.81128 12.5958 4.84529 12.7553 4.91136C12.9148 4.97743 13.0598 5.07428 13.1819 5.19637C13.304 5.31846 13.4008 5.4634 13.4669 5.62291C13.533 5.78243 13.567 5.9534 13.567 6.12606C13.567 6.29871 13.533 6.46968 13.4669 6.6292C13.4008 6.78872 13.304 6.93366 13.1819 7.05574L7.54687 12.6875H23.625C23.9731 12.6875 24.3069 12.8257 24.5531 13.0719C24.7992 13.318 24.9375 13.6519 24.9375 14Z" fill="#9E9E9E"/>
</svg>
